<svg xmlns="http://www.w3.org/2000/svg" width="615.6" height="113.16" viewBox="0 0 615.6 113.16">
  <path id="パス_44" data-name="パス 44" d="M-306.66-43.2a44.126,44.126,0,0,1,2.82-15.42,41.922,41.922,0,0,1,8.22-13.62,41.622,41.622,0,0,1,13.2-9.72,40.769,40.769,0,0,1,17.76-3.72q11.76,0,20.34,5.16a32.955,32.955,0,0,1,12.78,13.44l-12.72,8.76a21.751,21.751,0,0,0-4.08-6.06,20.409,20.409,0,0,0-5.16-3.9,23.161,23.161,0,0,0-5.76-2.1,27.318,27.318,0,0,0-5.88-.66A22.339,22.339,0,0,0-276-68.52a23.893,23.893,0,0,0-7.68,6.54,28.84,28.84,0,0,0-4.62,9.12,34.519,34.519,0,0,0-1.56,10.14,33.079,33.079,0,0,0,1.8,10.86,28.9,28.9,0,0,0,5.1,9.18,25.508,25.508,0,0,0,7.92,6.36,21.664,21.664,0,0,0,10.14,2.4,26.673,26.673,0,0,0,6-.72,22.81,22.81,0,0,0,5.94-2.28,22.507,22.507,0,0,0,5.22-4.02,18.553,18.553,0,0,0,3.84-5.94l13.56,7.8a25.611,25.611,0,0,1-5.82,8.46,37.449,37.449,0,0,1-8.52,6.18A43.517,43.517,0,0,1-254.82-.6,44.384,44.384,0,0,1-265.38.72a36.3,36.3,0,0,1-16.68-3.84,43.437,43.437,0,0,1-13.02-10.02,46.5,46.5,0,0,1-8.52-14.04A43.817,43.817,0,0,1-306.66-43.2ZM-179.7,1.2a34.515,34.515,0,0,1-13.8-2.64,31,31,0,0,1-10.38-7.14,31.517,31.517,0,0,1-6.54-10.38,33.888,33.888,0,0,1-2.28-12.36,34.215,34.215,0,0,1,2.28-12.48,31.517,31.517,0,0,1,6.54-10.38,31,31,0,0,1,10.38-7.14,34.515,34.515,0,0,1,13.8-2.64,34.083,34.083,0,0,1,13.74,2.64,31.144,31.144,0,0,1,10.32,7.14A31.517,31.517,0,0,1-149.1-43.8a34.215,34.215,0,0,1,2.28,12.48,33.888,33.888,0,0,1-2.28,12.36,32.024,32.024,0,0,1-6.48,10.38A30.346,30.346,0,0,1-165.9-1.44,34.515,34.515,0,0,1-179.7,1.2Zm-16.44-32.52a21.908,21.908,0,0,0,1.26,7.62,18.619,18.619,0,0,0,3.48,5.94,15.554,15.554,0,0,0,5.22,3.9,15.318,15.318,0,0,0,6.48,1.38,15.318,15.318,0,0,0,6.48-1.38,15.554,15.554,0,0,0,5.22-3.9,18.487,18.487,0,0,0,3.48-6,22.416,22.416,0,0,0,1.26-7.68A22.048,22.048,0,0,0-164.52-39,18.487,18.487,0,0,0-168-45a15.554,15.554,0,0,0-5.22-3.9,15.318,15.318,0,0,0-6.48-1.38,14.779,14.779,0,0,0-6.48,1.44,16.283,16.283,0,0,0-5.22,3.96,18.487,18.487,0,0,0-3.48,6A22.048,22.048,0,0,0-196.14-31.32ZM-26.34,0H-42.42V-35.28q0-7.56-2.58-11.04a8.392,8.392,0,0,0-7.14-3.48,13.481,13.481,0,0,0-9,3.66,20.15,20.15,0,0,0-6,9.54V0H-83.22V-35.28q0-7.56-2.58-11.04a8.392,8.392,0,0,0-7.14-3.48,13.69,13.69,0,0,0-8.94,3.6,19.576,19.576,0,0,0-6.06,9.48V0h-16.08V-62.88h14.52v11.64a24.008,24.008,0,0,1,9.54-9.42,28.512,28.512,0,0,1,13.86-3.3q7.92,0,12.24,3.84a17.155,17.155,0,0,1,5.52,9.48,27.169,27.169,0,0,1,9.72-9.9,26.237,26.237,0,0,1,13.44-3.42A18.682,18.682,0,0,1-35.7-61.8a15.6,15.6,0,0,1,5.76,5.64,23.588,23.588,0,0,1,2.82,7.92,51.916,51.916,0,0,1,.78,9ZM37.38,1.2A24.778,24.778,0,0,1,24.42-2.1a23.476,23.476,0,0,1-8.64-8.94v36.6H-.3V-62.88H13.74v10.8a25.657,25.657,0,0,1,9-8.7,25.022,25.022,0,0,1,12.72-3.18,26.924,26.924,0,0,1,11.76,2.58,29.125,29.125,0,0,1,9.3,6.96A32.39,32.39,0,0,1,62.64-44.1a35.524,35.524,0,0,1,2.22,12.54,39.626,39.626,0,0,1-2.04,12.84,32.86,32.86,0,0,1-5.7,10.44,26.578,26.578,0,0,1-8.7,6.96A24.337,24.337,0,0,1,37.38,1.2Zm-5.4-13.68a14.45,14.45,0,0,0,6.66-1.56,16.143,16.143,0,0,0,5.22-4.2,19.712,19.712,0,0,0,3.36-6.12,21.933,21.933,0,0,0,1.2-7.2,20.32,20.32,0,0,0-1.32-7.38,18.32,18.32,0,0,0-3.66-5.94,17.049,17.049,0,0,0-5.52-3.96,16.529,16.529,0,0,0-6.9-1.44,15.1,15.1,0,0,0-4.68.78,16.493,16.493,0,0,0-4.44,2.22,19.437,19.437,0,0,0-3.66,3.36,13.961,13.961,0,0,0-2.46,4.2v14.76a21.374,21.374,0,0,0,6.6,8.94A15.1,15.1,0,0,0,31.98-12.48ZM104.94,1.2A23.853,23.853,0,0,1,96.42-.3a20.48,20.48,0,0,1-6.84-4.2,19.549,19.549,0,0,1-4.5-6.3,19.078,19.078,0,0,1-1.62-7.92,17.447,17.447,0,0,1,1.98-8.22,18.848,18.848,0,0,1,5.52-6.42,27.366,27.366,0,0,1,8.46-4.14,36.9,36.9,0,0,1,10.8-1.5,46.536,46.536,0,0,1,8.22.72,33.482,33.482,0,0,1,7.14,2.04v-3.6q0-6.24-3.54-9.6t-10.5-3.36A27.811,27.811,0,0,0,101.7-51a45.7,45.7,0,0,0-9.84,5.28l-4.92-10.2a46.424,46.424,0,0,1,26.16-8.04q13.56,0,21.06,6.66t7.5,19.26v19.56a5.651,5.651,0,0,0,.9,3.6,3.944,3.944,0,0,0,2.94,1.2V0a35.8,35.8,0,0,1-7.08.84q-4.56,0-7.02-2.04a8.77,8.77,0,0,1-3.06-5.4l-.36-3.48a27.829,27.829,0,0,1-10.2,8.4A29.29,29.29,0,0,1,104.94,1.2Zm4.56-11.76A20.949,20.949,0,0,0,117.24-12a14.048,14.048,0,0,0,5.7-3.84,5.777,5.777,0,0,0,2.64-4.56v-7.2a39.369,39.369,0,0,0-6.24-1.74,33.61,33.61,0,0,0-6.48-.66,17.179,17.179,0,0,0-10.2,2.82,8.468,8.468,0,0,0-3.96,7.14,8.591,8.591,0,0,0,3.12,6.78A11.325,11.325,0,0,0,109.5-10.56ZM227.1,0H211.02V-35.28q0-7.56-2.64-11.04a8.672,8.672,0,0,0-7.32-3.48,13.77,13.77,0,0,0-4.92.96,18.109,18.109,0,0,0-4.74,2.7A21.966,21.966,0,0,0,187.38-42a16.368,16.368,0,0,0-2.64,5.28V0H168.66V-62.88h14.52v11.64a23.817,23.817,0,0,1,10.08-9.36,32.328,32.328,0,0,1,14.88-3.36,18.952,18.952,0,0,1,9.6,2.16,15.6,15.6,0,0,1,5.76,5.64,23.588,23.588,0,0,1,2.82,7.92,51.916,51.916,0,0,1,.78,9Zm25.92,12.24a31.023,31.023,0,0,0,3.96.9,21.579,21.579,0,0,0,3.24.3,6.877,6.877,0,0,0,2.88-.6,6.167,6.167,0,0,0,2.4-2.1,20.5,20.5,0,0,0,2.16-4.14q1.08-2.64,2.28-6.6L245.1-62.88h16.56L278.7-13.92l15.12-48.96h15.12l-26.4,75.36a22.514,22.514,0,0,1-7.8,10.8,21.934,21.934,0,0,1-13.68,4.2,26.009,26.009,0,0,1-3.9-.3,24.941,24.941,0,0,1-4.14-1.02Z" transform="translate(306.66 85.68)" fill="#fff"/>
</svg>
