<svg xmlns="http://www.w3.org/2000/svg" width="307.8" height="56.58" viewBox="0 0 307.8 56.58">
  <path id="パス_47" data-name="パス 47" d="M-153.33-21.6a22.063,22.063,0,0,1,1.41-7.71,20.961,20.961,0,0,1,4.11-6.81,20.811,20.811,0,0,1,6.6-4.86,20.384,20.384,0,0,1,8.88-1.86,19.362,19.362,0,0,1,10.17,2.58,16.478,16.478,0,0,1,6.39,6.72l-6.36,4.38a10.875,10.875,0,0,0-2.04-3.03,10.2,10.2,0,0,0-2.58-1.95,11.581,11.581,0,0,0-2.88-1.05,13.659,13.659,0,0,0-2.94-.33A11.169,11.169,0,0,0-138-34.26a11.946,11.946,0,0,0-3.84,3.27,14.42,14.42,0,0,0-2.31,4.56,17.26,17.26,0,0,0-.78,5.07,16.54,16.54,0,0,0,.9,5.43,14.452,14.452,0,0,0,2.55,4.59,12.754,12.754,0,0,0,3.96,3.18,10.832,10.832,0,0,0,5.07,1.2,13.337,13.337,0,0,0,3-.36,11.405,11.405,0,0,0,2.97-1.14,11.253,11.253,0,0,0,2.61-2.01,9.277,9.277,0,0,0,1.92-2.97l6.78,3.9a12.806,12.806,0,0,1-2.91,4.23,18.724,18.724,0,0,1-4.26,3.09A21.759,21.759,0,0,1-127.41-.3a22.192,22.192,0,0,1-5.28.66,18.148,18.148,0,0,1-8.34-1.92,21.718,21.718,0,0,1-6.51-5.01,23.248,23.248,0,0,1-4.26-7.02A21.908,21.908,0,0,1-153.33-21.6ZM-89.85.6a17.258,17.258,0,0,1-6.9-1.32,15.5,15.5,0,0,1-5.19-3.57,15.759,15.759,0,0,1-3.27-5.19,16.944,16.944,0,0,1-1.14-6.18,17.107,17.107,0,0,1,1.14-6.24,15.759,15.759,0,0,1,3.27-5.19,15.5,15.5,0,0,1,5.19-3.57,17.258,17.258,0,0,1,6.9-1.32,17.042,17.042,0,0,1,6.87,1.32,15.572,15.572,0,0,1,5.16,3.57,15.759,15.759,0,0,1,3.27,5.19,17.107,17.107,0,0,1,1.14,6.24,16.944,16.944,0,0,1-1.14,6.18,16.012,16.012,0,0,1-3.24,5.19A15.173,15.173,0,0,1-82.95-.72,17.258,17.258,0,0,1-89.85.6Zm-8.22-16.26a10.954,10.954,0,0,0,.63,3.81A9.309,9.309,0,0,0-95.7-8.88a7.777,7.777,0,0,0,2.61,1.95,7.659,7.659,0,0,0,3.24.69,7.659,7.659,0,0,0,3.24-.69A7.777,7.777,0,0,0-84-8.88a9.243,9.243,0,0,0,1.74-3,11.208,11.208,0,0,0,.63-3.84,11.024,11.024,0,0,0-.63-3.78,9.243,9.243,0,0,0-1.74-3,7.777,7.777,0,0,0-2.61-1.95,7.659,7.659,0,0,0-3.24-.69,7.39,7.39,0,0,0-3.24.72,8.142,8.142,0,0,0-2.61,1.98,9.243,9.243,0,0,0-1.74,3A11.024,11.024,0,0,0-98.07-15.66ZM-13.17,0h-8.04V-17.64q0-3.78-1.29-5.52a4.2,4.2,0,0,0-3.57-1.74,6.741,6.741,0,0,0-4.5,1.83,10.075,10.075,0,0,0-3,4.77V0h-8.04V-17.64q0-3.78-1.29-5.52a4.2,4.2,0,0,0-3.57-1.74,6.845,6.845,0,0,0-4.47,1.8,9.788,9.788,0,0,0-3.03,4.74V0h-8.04V-31.44h7.26v5.82a12,12,0,0,1,4.77-4.71,14.256,14.256,0,0,1,6.93-1.65,8.909,8.909,0,0,1,6.12,1.92,8.578,8.578,0,0,1,2.76,4.74,13.585,13.585,0,0,1,4.86-4.95,13.118,13.118,0,0,1,6.72-1.71,9.341,9.341,0,0,1,4.74,1.08,7.8,7.8,0,0,1,2.88,2.82,11.794,11.794,0,0,1,1.41,3.96,25.958,25.958,0,0,1,.39,4.5ZM18.69.6a12.389,12.389,0,0,1-6.48-1.65A11.738,11.738,0,0,1,7.89-5.52v18.3H-.15V-31.44H6.87v5.4a12.828,12.828,0,0,1,4.5-4.35,12.511,12.511,0,0,1,6.36-1.59,13.462,13.462,0,0,1,5.88,1.29,14.562,14.562,0,0,1,4.65,3.48,16.2,16.2,0,0,1,3.06,5.16,17.762,17.762,0,0,1,1.11,6.27,19.813,19.813,0,0,1-1.02,6.42,16.43,16.43,0,0,1-2.85,5.22A13.289,13.289,0,0,1,24.21-.66,12.168,12.168,0,0,1,18.69.6Zm-2.7-6.84a7.225,7.225,0,0,0,3.33-.78,8.071,8.071,0,0,0,2.61-2.1,9.856,9.856,0,0,0,1.68-3.06,10.966,10.966,0,0,0,.6-3.6,10.16,10.16,0,0,0-.66-3.69,9.16,9.16,0,0,0-1.83-2.97,8.525,8.525,0,0,0-2.76-1.98,8.265,8.265,0,0,0-3.45-.72,7.549,7.549,0,0,0-2.34.39,8.247,8.247,0,0,0-2.22,1.11,9.718,9.718,0,0,0-1.83,1.68,6.98,6.98,0,0,0-1.23,2.1v7.38a10.687,10.687,0,0,0,3.3,4.47A7.549,7.549,0,0,0,15.99-6.24ZM52.47.6a11.927,11.927,0,0,1-4.26-.75,10.24,10.24,0,0,1-3.42-2.1A9.774,9.774,0,0,1,42.54-5.4a9.539,9.539,0,0,1-.81-3.96,8.724,8.724,0,0,1,.99-4.11,9.424,9.424,0,0,1,2.76-3.21,13.683,13.683,0,0,1,4.23-2.07,18.452,18.452,0,0,1,5.4-.75,23.268,23.268,0,0,1,4.11.36,16.741,16.741,0,0,1,3.57,1.02v-1.8a6.3,6.3,0,0,0-1.77-4.8,7.359,7.359,0,0,0-5.25-1.68,13.905,13.905,0,0,0-4.92.9,22.848,22.848,0,0,0-4.92,2.64l-2.46-5.1a23.212,23.212,0,0,1,13.08-4.02q6.78,0,10.53,3.33t3.75,9.63v9.78a2.825,2.825,0,0,0,.45,1.8,1.972,1.972,0,0,0,1.47.6V0a17.9,17.9,0,0,1-3.54.42A5.36,5.36,0,0,1,65.7-.6a4.385,4.385,0,0,1-1.53-2.7l-.18-1.74a13.914,13.914,0,0,1-5.1,4.2A14.645,14.645,0,0,1,52.47.6Zm2.28-5.88A10.474,10.474,0,0,0,58.62-6a7.024,7.024,0,0,0,2.85-1.92,2.888,2.888,0,0,0,1.32-2.28v-3.6a19.684,19.684,0,0,0-3.12-.87A16.805,16.805,0,0,0,56.43-15a8.589,8.589,0,0,0-5.1,1.41,4.234,4.234,0,0,0-1.98,3.57,4.3,4.3,0,0,0,1.56,3.39A5.662,5.662,0,0,0,54.75-5.28ZM113.55,0h-8.04V-17.64q0-3.78-1.32-5.52a4.336,4.336,0,0,0-3.66-1.74,6.885,6.885,0,0,0-2.46.48,9.054,9.054,0,0,0-2.37,1.35A10.983,10.983,0,0,0,93.69-21a8.184,8.184,0,0,0-1.32,2.64V0H84.33V-31.44h7.26v5.82a11.908,11.908,0,0,1,5.04-4.68,16.164,16.164,0,0,1,7.44-1.68,9.476,9.476,0,0,1,4.8,1.08,7.8,7.8,0,0,1,2.88,2.82,11.794,11.794,0,0,1,1.41,3.96,25.958,25.958,0,0,1,.39,4.5Zm12.96,6.12a15.511,15.511,0,0,0,1.98.45,10.79,10.79,0,0,0,1.62.15,3.439,3.439,0,0,0,1.44-.3,3.084,3.084,0,0,0,1.2-1.05,10.25,10.25,0,0,0,1.08-2.07q.54-1.32,1.14-3.3L122.55-31.44h8.28l8.52,24.48,7.56-24.48h7.56L141.27,6.24a11.257,11.257,0,0,1-3.9,5.4,10.967,10.967,0,0,1-6.84,2.1,13,13,0,0,1-1.95-.15,12.471,12.471,0,0,1-2.07-.51Z" transform="translate(153.33 42.84)" fill="#fff"/>
</svg>
