<svg xmlns="http://www.w3.org/2000/svg" width="507.96" height="84.48" viewBox="0 0 507.96 84.48">
  <path id="パス_45" data-name="パス 45" d="M-252.84-31.44a34.215,34.215,0,0,1,2.28-12.48,30.391,30.391,0,0,1,6.6-10.32,32.125,32.125,0,0,1,10.44-7.08,34.515,34.515,0,0,1,13.8-2.64q10.32,0,17.58,4.44a28.359,28.359,0,0,1,10.86,11.64L-207-43.08a14.122,14.122,0,0,0-5.4-5.34,15.1,15.1,0,0,0-7.44-1.86,15.318,15.318,0,0,0-6.48,1.38,15.928,15.928,0,0,0-5.22,3.84,17.787,17.787,0,0,0-3.48,5.94,22.416,22.416,0,0,0-1.26,7.68,21.5,21.5,0,0,0,1.32,7.68,19.358,19.358,0,0,0,3.54,6,15.554,15.554,0,0,0,5.22,3.9,15.039,15.039,0,0,0,6.36,1.38,15.42,15.42,0,0,0,7.98-2.16,12.147,12.147,0,0,0,5.1-5.28l15.72,4.8A26.427,26.427,0,0,1-201.72-3.36Q-209.16,1.2-219.6,1.2a34.515,34.515,0,0,1-13.8-2.64,31.66,31.66,0,0,1-10.44-7.14,31.68,31.68,0,0,1-6.66-10.44A33.584,33.584,0,0,1-252.84-31.44ZM-140.76,1.2a34.515,34.515,0,0,1-13.8-2.64,31,31,0,0,1-10.38-7.14,31.517,31.517,0,0,1-6.54-10.38,33.888,33.888,0,0,1-2.28-12.36,34.215,34.215,0,0,1,2.28-12.48,31.517,31.517,0,0,1,6.54-10.38,31,31,0,0,1,10.38-7.14,34.515,34.515,0,0,1,13.8-2.64,34.083,34.083,0,0,1,13.74,2.64,31.144,31.144,0,0,1,10.32,7.14,31.517,31.517,0,0,1,6.54,10.38,34.215,34.215,0,0,1,2.28,12.48,33.888,33.888,0,0,1-2.28,12.36,32.024,32.024,0,0,1-6.48,10.38,30.346,30.346,0,0,1-10.32,7.14A34.515,34.515,0,0,1-140.76,1.2ZM-157.2-31.32a21.908,21.908,0,0,0,1.26,7.62,18.619,18.619,0,0,0,3.48,5.94,15.554,15.554,0,0,0,5.22,3.9,15.317,15.317,0,0,0,6.48,1.38,15.318,15.318,0,0,0,6.48-1.38,15.554,15.554,0,0,0,5.22-3.9,18.486,18.486,0,0,0,3.48-6,22.416,22.416,0,0,0,1.26-7.68A22.048,22.048,0,0,0-125.58-39a18.486,18.486,0,0,0-3.48-6,15.554,15.554,0,0,0-5.22-3.9,15.318,15.318,0,0,0-6.48-1.38,14.779,14.779,0,0,0-6.48,1.44,16.283,16.283,0,0,0-5.22,3.96,18.487,18.487,0,0,0-3.48,6A22.048,22.048,0,0,0-157.2-31.32ZM-26.64,0H-42.72V-35.28q0-7.56-2.64-11.04a8.672,8.672,0,0,0-7.32-3.48,13.77,13.77,0,0,0-4.92.96,18.109,18.109,0,0,0-4.74,2.7A21.966,21.966,0,0,0-66.36-42,16.368,16.368,0,0,0-69-36.72V0H-85.08V-62.88h14.52v11.64A23.816,23.816,0,0,1-60.48-60.6,32.328,32.328,0,0,1-45.6-63.96,18.952,18.952,0,0,1-36-61.8a15.6,15.6,0,0,1,5.76,5.64,23.588,23.588,0,0,1,2.82,7.92,51.916,51.916,0,0,1,.78,9ZM36.48-3.24A71.757,71.757,0,0,1,28.56-.36a33.272,33.272,0,0,1-9.84,1.44,22.84,22.84,0,0,1-6.3-.84,13.855,13.855,0,0,1-5.16-2.7,13.187,13.187,0,0,1-3.54-4.8A17.374,17.374,0,0,1,2.4-14.4V-50.52H-5.88V-62.88H2.4v-20.4H18.48v20.4h13.2v12.36H18.48V-19.8q0,3.36,1.74,4.74a6.642,6.642,0,0,0,4.26,1.38,14.791,14.791,0,0,0,4.92-.84q2.4-.84,3.84-1.44ZM74.04,1.2A23.853,23.853,0,0,1,65.52-.3a20.48,20.48,0,0,1-6.84-4.2,19.549,19.549,0,0,1-4.5-6.3,19.078,19.078,0,0,1-1.62-7.92,17.447,17.447,0,0,1,1.98-8.22,18.848,18.848,0,0,1,5.52-6.42,27.366,27.366,0,0,1,8.46-4.14A36.9,36.9,0,0,1,79.32-39a46.536,46.536,0,0,1,8.22.72,33.482,33.482,0,0,1,7.14,2.04v-3.6q0-6.24-3.54-9.6T80.64-52.8A27.811,27.811,0,0,0,70.8-51a45.7,45.7,0,0,0-9.84,5.28l-4.92-10.2A46.424,46.424,0,0,1,82.2-63.96q13.56,0,21.06,6.66t7.5,19.26v19.56a5.651,5.651,0,0,0,.9,3.6,3.944,3.944,0,0,0,2.94,1.2V0a35.8,35.8,0,0,1-7.08.84q-4.56,0-7.02-2.04a8.77,8.77,0,0,1-3.06-5.4l-.36-3.48a27.829,27.829,0,0,1-10.2,8.4A29.29,29.29,0,0,1,74.04,1.2ZM78.6-10.56A20.949,20.949,0,0,0,86.34-12a14.048,14.048,0,0,0,5.7-3.84,5.777,5.777,0,0,0,2.64-4.56v-7.2a39.369,39.369,0,0,0-6.24-1.74A33.61,33.61,0,0,0,81.96-30a17.179,17.179,0,0,0-10.2,2.82,8.468,8.468,0,0,0-3.96,7.14,8.591,8.591,0,0,0,3.12,6.78A11.325,11.325,0,0,0,78.6-10.56Zm55.2-20.88a34.215,34.215,0,0,1,2.28-12.48,30.391,30.391,0,0,1,6.6-10.32,32.125,32.125,0,0,1,10.44-7.08,34.515,34.515,0,0,1,13.8-2.64q10.32,0,17.58,4.44a28.359,28.359,0,0,1,10.86,11.64l-15.72,4.8a14.122,14.122,0,0,0-5.4-5.34,15.1,15.1,0,0,0-7.44-1.86,15.318,15.318,0,0,0-6.48,1.38,15.928,15.928,0,0,0-5.22,3.84,17.787,17.787,0,0,0-3.48,5.94,22.416,22.416,0,0,0-1.26,7.68,21.5,21.5,0,0,0,1.32,7.68,19.358,19.358,0,0,0,3.54,6,15.554,15.554,0,0,0,5.22,3.9,15.039,15.039,0,0,0,6.36,1.38,15.42,15.42,0,0,0,7.98-2.16,12.147,12.147,0,0,0,5.1-5.28l15.72,4.8A26.427,26.427,0,0,1,184.92-3.36Q177.48,1.2,167.04,1.2a34.515,34.515,0,0,1-13.8-2.64A31.66,31.66,0,0,1,142.8-8.58a31.68,31.68,0,0,1-6.66-10.44A33.584,33.584,0,0,1,133.8-31.44ZM255.12-3.24A71.757,71.757,0,0,1,247.2-.36a33.273,33.273,0,0,1-9.84,1.44,22.84,22.84,0,0,1-6.3-.84,13.855,13.855,0,0,1-5.16-2.7,13.187,13.187,0,0,1-3.54-4.8,17.373,17.373,0,0,1-1.32-7.14V-50.52h-8.28V-62.88h8.28v-20.4h16.08v20.4h13.2v12.36h-13.2V-19.8q0,3.36,1.74,4.74a6.642,6.642,0,0,0,4.26,1.38,14.791,14.791,0,0,0,4.92-.84q2.4-.84,3.84-1.44Z" transform="translate(252.84 83.28)" fill="#b8ebcf"/>
</svg>
