<svg xmlns="http://www.w3.org/2000/svg" width="261.42" height="43.44" viewBox="0 0 261.42 43.44">
  <path id="パス_48" data-name="パス 48" d="M-130.05-21.6a22.063,22.063,0,0,1,1.41-7.71,20.961,20.961,0,0,1,4.11-6.81,20.811,20.811,0,0,1,6.6-4.86,20.384,20.384,0,0,1,8.88-1.86,19.362,19.362,0,0,1,10.17,2.58,16.478,16.478,0,0,1,6.39,6.72l-6.36,4.38a10.875,10.875,0,0,0-2.04-3.03,10.2,10.2,0,0,0-2.58-1.95,11.581,11.581,0,0,0-2.88-1.05,13.659,13.659,0,0,0-2.94-.33,11.169,11.169,0,0,0-5.43,1.26,11.946,11.946,0,0,0-3.84,3.27,14.42,14.42,0,0,0-2.31,4.56,17.26,17.26,0,0,0-.78,5.07,16.54,16.54,0,0,0,.9,5.43,14.452,14.452,0,0,0,2.55,4.59,12.754,12.754,0,0,0,3.96,3.18,10.832,10.832,0,0,0,5.07,1.2,13.336,13.336,0,0,0,3-.36,11.405,11.405,0,0,0,2.97-1.14,11.253,11.253,0,0,0,2.61-2.01,9.277,9.277,0,0,0,1.92-2.97l6.78,3.9A12.806,12.806,0,0,1-94.8-5.31a18.724,18.724,0,0,1-4.26,3.09A21.759,21.759,0,0,1-104.13-.3a22.192,22.192,0,0,1-5.28.66,18.148,18.148,0,0,1-8.34-1.92,21.718,21.718,0,0,1-6.51-5.01,23.247,23.247,0,0,1-4.26-7.02A21.908,21.908,0,0,1-130.05-21.6ZM-66.57.6a17.258,17.258,0,0,1-6.9-1.32,15.5,15.5,0,0,1-5.19-3.57,15.759,15.759,0,0,1-3.27-5.19,16.944,16.944,0,0,1-1.14-6.18,17.107,17.107,0,0,1,1.14-6.24,15.759,15.759,0,0,1,3.27-5.19,15.5,15.5,0,0,1,5.19-3.57,17.258,17.258,0,0,1,6.9-1.32,17.042,17.042,0,0,1,6.87,1.32,15.572,15.572,0,0,1,5.16,3.57,15.759,15.759,0,0,1,3.27,5.19,17.107,17.107,0,0,1,1.14,6.24,16.944,16.944,0,0,1-1.14,6.18,16.012,16.012,0,0,1-3.24,5.19A15.173,15.173,0,0,1-59.67-.72,17.258,17.258,0,0,1-66.57.6Zm-8.22-16.26a10.954,10.954,0,0,0,.63,3.81,9.309,9.309,0,0,0,1.74,2.97,7.777,7.777,0,0,0,2.61,1.95,7.659,7.659,0,0,0,3.24.69,7.659,7.659,0,0,0,3.24-.69,7.777,7.777,0,0,0,2.61-1.95,9.243,9.243,0,0,0,1.74-3,11.208,11.208,0,0,0,.63-3.84,11.024,11.024,0,0,0-.63-3.78,9.243,9.243,0,0,0-1.74-3,7.777,7.777,0,0,0-2.61-1.95,7.659,7.659,0,0,0-3.24-.69,7.39,7.39,0,0,0-3.24.72,8.142,8.142,0,0,0-2.61,1.98,9.243,9.243,0,0,0-1.74,3A11.024,11.024,0,0,0-74.79-15.66ZM-9.51,0h-8.04V-17.64q0-3.78-1.32-5.52a4.336,4.336,0,0,0-3.66-1.74,6.885,6.885,0,0,0-2.46.48,9.054,9.054,0,0,0-2.37,1.35A10.983,10.983,0,0,0-29.37-21a8.184,8.184,0,0,0-1.32,2.64V0h-8.04V-31.44h7.26v5.82a11.908,11.908,0,0,1,5.04-4.68,16.164,16.164,0,0,1,7.44-1.68,9.476,9.476,0,0,1,4.8,1.08,7.8,7.8,0,0,1,2.88,2.82A11.794,11.794,0,0,1-9.9-24.12a25.958,25.958,0,0,1,.39,4.5ZM22.05-1.62A35.878,35.878,0,0,1,18.09-.18a16.636,16.636,0,0,1-4.92.72A11.42,11.42,0,0,1,10.02.12,6.927,6.927,0,0,1,7.44-1.23a6.594,6.594,0,0,1-1.77-2.4A8.687,8.687,0,0,1,5.01-7.2V-25.26H.87v-6.18H5.01v-10.2h8.04v10.2h6.6v6.18h-6.6V-9.9a2.859,2.859,0,0,0,.87,2.37,3.321,3.321,0,0,0,2.13.69,7.4,7.4,0,0,0,2.46-.42q1.2-.42,1.92-.72ZM40.83.6a11.927,11.927,0,0,1-4.26-.75,10.24,10.24,0,0,1-3.42-2.1A9.774,9.774,0,0,1,30.9-5.4a9.539,9.539,0,0,1-.81-3.96,8.724,8.724,0,0,1,.99-4.11,9.424,9.424,0,0,1,2.76-3.21,13.683,13.683,0,0,1,4.23-2.07,18.452,18.452,0,0,1,5.4-.75,23.268,23.268,0,0,1,4.11.36,16.741,16.741,0,0,1,3.57,1.02v-1.8a6.3,6.3,0,0,0-1.77-4.8,7.359,7.359,0,0,0-5.25-1.68,13.905,13.905,0,0,0-4.92.9,22.848,22.848,0,0,0-4.92,2.64l-2.46-5.1a23.212,23.212,0,0,1,13.08-4.02q6.78,0,10.53,3.33t3.75,9.63v9.78a2.825,2.825,0,0,0,.45,1.8,1.972,1.972,0,0,0,1.47.6V0a17.9,17.9,0,0,1-3.54.42A5.36,5.36,0,0,1,54.06-.6a4.385,4.385,0,0,1-1.53-2.7l-.18-1.74a13.914,13.914,0,0,1-5.1,4.2A14.645,14.645,0,0,1,40.83.6Zm2.28-5.88A10.474,10.474,0,0,0,46.98-6a7.024,7.024,0,0,0,2.85-1.92,2.888,2.888,0,0,0,1.32-2.28v-3.6a19.684,19.684,0,0,0-3.12-.87A16.805,16.805,0,0,0,44.79-15a8.589,8.589,0,0,0-5.1,1.41,4.234,4.234,0,0,0-1.98,3.57,4.3,4.3,0,0,0,1.56,3.39A5.662,5.662,0,0,0,43.11-5.28Zm27.6-10.44a17.107,17.107,0,0,1,1.14-6.24,15.2,15.2,0,0,1,3.3-5.16,16.062,16.062,0,0,1,5.22-3.54,17.258,17.258,0,0,1,6.9-1.32,16.536,16.536,0,0,1,8.79,2.22,14.179,14.179,0,0,1,5.43,5.82l-7.86,2.4a7.061,7.061,0,0,0-2.7-2.67,7.551,7.551,0,0,0-3.72-.93,7.659,7.659,0,0,0-3.24.69,7.964,7.964,0,0,0-2.61,1.92,8.893,8.893,0,0,0-1.74,2.97,11.208,11.208,0,0,0-.63,3.84,10.748,10.748,0,0,0,.66,3.84,9.679,9.679,0,0,0,1.77,3,7.777,7.777,0,0,0,2.61,1.95,7.52,7.52,0,0,0,3.18.69A7.71,7.71,0,0,0,91.2-7.32a6.074,6.074,0,0,0,2.55-2.64l7.86,2.4a13.214,13.214,0,0,1-5.34,5.88A16.782,16.782,0,0,1,87.33.6a17.258,17.258,0,0,1-6.9-1.32,15.83,15.83,0,0,1-5.22-3.57,15.84,15.84,0,0,1-3.33-5.22A16.792,16.792,0,0,1,70.71-15.72Zm60.66,14.1a35.878,35.878,0,0,1-3.96,1.44,16.636,16.636,0,0,1-4.92.72,11.42,11.42,0,0,1-3.15-.42,6.927,6.927,0,0,1-2.58-1.35,6.594,6.594,0,0,1-1.77-2.4,8.687,8.687,0,0,1-.66-3.57V-25.26h-4.14v-6.18h4.14v-10.2h8.04v10.2h6.6v6.18h-6.6V-9.9a2.859,2.859,0,0,0,.87,2.37,3.321,3.321,0,0,0,2.13.69,7.4,7.4,0,0,0,2.46-.42q1.2-.42,1.92-.72Z" transform="translate(130.05 42.84)" fill="#b8ebcf"/>
</svg>
