<svg xmlns="http://www.w3.org/2000/svg" width="936.96" height="115.08" viewBox="0 0 936.96 115.08">
  <path id="パス_49" data-name="パス 49" d="M-464.76,0V-85.2h36.12a24.182,24.182,0,0,1,10.86,2.46,28.094,28.094,0,0,1,8.58,6.48,30.578,30.578,0,0,1,5.64,9.12,27.432,27.432,0,0,1,2.04,10.26,29.568,29.568,0,0,1-1.92,10.5,29.152,29.152,0,0,1-5.4,9.06,26.53,26.53,0,0,1-8.4,6.36,24.3,24.3,0,0,1-10.8,2.4H-448.2V0Zm16.56-43.08H-429a9.484,9.484,0,0,0,7.62-3.72q3.06-3.72,3.06-10.08a16.6,16.6,0,0,0-.96-5.82,14.139,14.139,0,0,0-2.52-4.38,10.029,10.029,0,0,0-3.66-2.7,10.724,10.724,0,0,0-4.26-.9H-448.2Zm106.08-5.88a31.716,31.716,0,0,0-13.08,2.82,16.508,16.508,0,0,0-8.28,8.1V0h-16.08V-62.88h14.76v13.44a28.671,28.671,0,0,1,3.96-5.82,30.536,30.536,0,0,1,4.92-4.5,22.812,22.812,0,0,1,5.34-2.94,14.737,14.737,0,0,1,5.22-1.02h1.98a6.414,6.414,0,0,1,1.26.12Zm21,48.96V-62.88h16.08V0Zm0-71.64V-87.6h16.08v15.96ZM-261.6,0l-23.16-62.88h16.56l15.96,49.8,16.08-49.8h15.12L-244.2,0Zm76.56,1.2a23.853,23.853,0,0,1-8.52-1.5,20.48,20.48,0,0,1-6.84-4.2,19.549,19.549,0,0,1-4.5-6.3,19.078,19.078,0,0,1-1.62-7.92,17.447,17.447,0,0,1,1.98-8.22,18.849,18.849,0,0,1,5.52-6.42,27.365,27.365,0,0,1,8.46-4.14,36.9,36.9,0,0,1,10.8-1.5,46.536,46.536,0,0,1,8.22.72,33.482,33.482,0,0,1,7.14,2.04v-3.6q0-6.24-3.54-9.6t-10.5-3.36a27.811,27.811,0,0,0-9.84,1.8,45.7,45.7,0,0,0-9.84,5.28l-4.92-10.2a46.424,46.424,0,0,1,26.16-8.04q13.56,0,21.06,6.66t7.5,19.26v19.56a5.651,5.651,0,0,0,.9,3.6,3.944,3.944,0,0,0,2.94,1.2V0a35.8,35.8,0,0,1-7.08.84q-4.56,0-7.02-2.04a8.77,8.77,0,0,1-3.06-5.4l-.36-3.48a27.829,27.829,0,0,1-10.2,8.4A29.29,29.29,0,0,1-185.04,1.2Zm4.56-11.76A20.949,20.949,0,0,0-172.74-12a14.048,14.048,0,0,0,5.7-3.84,5.777,5.777,0,0,0,2.64-4.56v-7.2a39.369,39.369,0,0,0-6.24-1.74,33.611,33.611,0,0,0-6.48-.66,17.179,17.179,0,0,0-10.2,2.82,8.468,8.468,0,0,0-3.96,7.14,8.591,8.591,0,0,0,3.12,6.78A11.325,11.325,0,0,0-180.48-10.56Zm55.2-20.88A34.215,34.215,0,0,1-123-43.92a30.391,30.391,0,0,1,6.6-10.32,32.125,32.125,0,0,1,10.44-7.08,34.515,34.515,0,0,1,13.8-2.64q10.32,0,17.58,4.44A28.359,28.359,0,0,1-63.72-47.88l-15.72,4.8a14.122,14.122,0,0,0-5.4-5.34,15.1,15.1,0,0,0-7.44-1.86,15.318,15.318,0,0,0-6.48,1.38,15.928,15.928,0,0,0-5.22,3.84,17.786,17.786,0,0,0-3.48,5.94,22.416,22.416,0,0,0-1.26,7.68,21.5,21.5,0,0,0,1.32,7.68,19.358,19.358,0,0,0,3.54,6,15.555,15.555,0,0,0,5.22,3.9,15.039,15.039,0,0,0,6.36,1.38,15.42,15.42,0,0,0,7.98-2.16,12.147,12.147,0,0,0,5.1-5.28l15.72,4.8A26.427,26.427,0,0,1-74.16-3.36Q-81.6,1.2-92.04,1.2a34.515,34.515,0,0,1-13.8-2.64,31.66,31.66,0,0,1-10.44-7.14,31.681,31.681,0,0,1-6.66-10.44A33.584,33.584,0,0,1-125.28-31.44Zm84.12,43.68a31.023,31.023,0,0,0,3.96.9,21.579,21.579,0,0,0,3.24.3,6.877,6.877,0,0,0,2.88-.6,6.167,6.167,0,0,0,2.4-2.1A20.5,20.5,0,0,0-26.52,6.6q1.08-2.64,2.28-6.6L-49.08-62.88h16.56l17.04,48.96L-.36-62.88H14.76l-26.4,75.36a22.514,22.514,0,0,1-7.8,10.8,21.934,21.934,0,0,1-13.68,4.2,26.009,26.009,0,0,1-3.9-.3,24.941,24.941,0,0,1-4.14-1.02ZM74.64,0V-85.2h36.12a24.182,24.182,0,0,1,10.86,2.46,28.094,28.094,0,0,1,8.58,6.48,30.578,30.578,0,0,1,5.64,9.12,27.431,27.431,0,0,1,2.04,10.26,29.568,29.568,0,0,1-1.92,10.5,29.153,29.153,0,0,1-5.4,9.06,26.531,26.531,0,0,1-8.4,6.36,24.3,24.3,0,0,1-10.8,2.4H91.2V0ZM91.2-43.08h19.2a9.484,9.484,0,0,0,7.62-3.72q3.06-3.72,3.06-10.08a16.6,16.6,0,0,0-.96-5.82,14.139,14.139,0,0,0-2.52-4.38,10.029,10.029,0,0,0-3.66-2.7,10.724,10.724,0,0,0-4.26-.9H91.2ZM187.8,1.2A34.515,34.515,0,0,1,174-1.44a31,31,0,0,1-10.38-7.14,31.517,31.517,0,0,1-6.54-10.38,33.888,33.888,0,0,1-2.28-12.36,34.215,34.215,0,0,1,2.28-12.48,31.517,31.517,0,0,1,6.54-10.38A31,31,0,0,1,174-61.32a34.515,34.515,0,0,1,13.8-2.64,34.083,34.083,0,0,1,13.74,2.64,31.144,31.144,0,0,1,10.32,7.14A31.517,31.517,0,0,1,218.4-43.8a34.215,34.215,0,0,1,2.28,12.48,33.888,33.888,0,0,1-2.28,12.36,32.024,32.024,0,0,1-6.48,10.38A30.346,30.346,0,0,1,201.6-1.44,34.515,34.515,0,0,1,187.8,1.2ZM171.36-31.32a21.908,21.908,0,0,0,1.26,7.62,18.619,18.619,0,0,0,3.48,5.94,15.554,15.554,0,0,0,5.22,3.9,15.318,15.318,0,0,0,6.48,1.38,15.318,15.318,0,0,0,6.48-1.38,15.554,15.554,0,0,0,5.22-3.9,18.487,18.487,0,0,0,3.48-6,22.416,22.416,0,0,0,1.26-7.68A22.048,22.048,0,0,0,202.98-39a18.487,18.487,0,0,0-3.48-6,15.554,15.554,0,0,0-5.22-3.9,15.318,15.318,0,0,0-6.48-1.38,14.779,14.779,0,0,0-6.48,1.44,16.283,16.283,0,0,0-5.22,3.96,18.487,18.487,0,0,0-3.48,6A22.048,22.048,0,0,0,171.36-31.32Zm72-56.28h16.08v67.44a7.937,7.937,0,0,0,1.68,5.4,6.037,6.037,0,0,0,4.8,1.92,12.045,12.045,0,0,0,3.18-.48,21.509,21.509,0,0,0,3.3-1.2l2.16,12.24A31.1,31.1,0,0,1,267,.12a41.243,41.243,0,0,1-7.8.84q-7.56,0-11.7-4.02t-4.14-11.46ZM293.52,0V-62.88H309.6V0Zm0-71.64V-87.6H309.6v15.96Zm38.64,40.2a34.214,34.214,0,0,1,2.28-12.48,30.391,30.391,0,0,1,6.6-10.32,32.125,32.125,0,0,1,10.44-7.08,34.515,34.515,0,0,1,13.8-2.64q10.32,0,17.58,4.44a28.359,28.359,0,0,1,10.86,11.64L378-43.08a14.122,14.122,0,0,0-5.4-5.34,15.1,15.1,0,0,0-7.44-1.86,15.318,15.318,0,0,0-6.48,1.38,15.928,15.928,0,0,0-5.22,3.84,17.786,17.786,0,0,0-3.48,5.94,22.416,22.416,0,0,0-1.26,7.68,21.5,21.5,0,0,0,1.32,7.68,19.358,19.358,0,0,0,3.54,6,15.555,15.555,0,0,0,5.22,3.9,15.039,15.039,0,0,0,6.36,1.38,15.42,15.42,0,0,0,7.98-2.16,12.147,12.147,0,0,0,5.1-5.28l15.72,4.8A26.427,26.427,0,0,1,383.28-3.36Q375.84,1.2,365.4,1.2a34.515,34.515,0,0,1-13.8-2.64,31.66,31.66,0,0,1-10.44-7.14,31.681,31.681,0,0,1-6.66-10.44A33.583,33.583,0,0,1,332.16-31.44Zm84.12,43.68a31.022,31.022,0,0,0,3.96.9,21.579,21.579,0,0,0,3.24.3,6.877,6.877,0,0,0,2.88-.6,6.167,6.167,0,0,0,2.4-2.1,20.5,20.5,0,0,0,2.16-4.14Q432,3.96,433.2,0L408.36-62.88h16.56l17.04,48.96,15.12-48.96H472.2L445.8,12.48a22.514,22.514,0,0,1-7.8,10.8,21.934,21.934,0,0,1-13.68,4.2,26.009,26.009,0,0,1-3.9-.3,24.94,24.94,0,0,1-4.14-1.02Z" transform="translate(464.76 87.6)" fill="#fff"/>
</svg>
