<svg xmlns="http://www.w3.org/2000/svg" width="239.76" height="117.54" viewBox="0 0 239.76 117.54">
  <path id="パス_50" data-name="パス 50" d="M-118.02,0V-42.6h18.06a12.091,12.091,0,0,1,5.43,1.23,14.047,14.047,0,0,1,4.29,3.24,15.289,15.289,0,0,1,2.82,4.56,13.716,13.716,0,0,1,1.02,5.13,14.784,14.784,0,0,1-.96,5.25,14.576,14.576,0,0,1-2.7,4.53,13.265,13.265,0,0,1-4.2,3.18,12.15,12.15,0,0,1-5.4,1.2h-10.08V0Zm8.28-21.54h9.6a4.742,4.742,0,0,0,3.81-1.86,7.7,7.7,0,0,0,1.53-5.04,8.3,8.3,0,0,0-.48-2.91,7.07,7.07,0,0,0-1.26-2.19,5.014,5.014,0,0,0-1.83-1.35,5.362,5.362,0,0,0-2.13-.45h-9.24Zm53.04-2.94a15.858,15.858,0,0,0-6.54,1.41,8.254,8.254,0,0,0-4.14,4.05V0h-8.04V-31.44h7.38v6.72a14.334,14.334,0,0,1,1.98-2.91,15.268,15.268,0,0,1,2.46-2.25,11.406,11.406,0,0,1,2.67-1.47,7.368,7.368,0,0,1,2.61-.51h.99a3.207,3.207,0,0,1,.63.06ZM-46.2,0V-31.44h8.04V0Zm0-35.82V-43.8h8.04v7.98ZM-16.44,0-28.02-31.44h8.28l7.98,24.9,8.04-24.9H3.84L-7.74,0ZM21.84.6a11.927,11.927,0,0,1-4.26-.75,10.24,10.24,0,0,1-3.42-2.1A9.774,9.774,0,0,1,11.91-5.4a9.539,9.539,0,0,1-.81-3.96,8.724,8.724,0,0,1,.99-4.11,9.424,9.424,0,0,1,2.76-3.21,13.683,13.683,0,0,1,4.23-2.07,18.452,18.452,0,0,1,5.4-.75,23.268,23.268,0,0,1,4.11.36,16.741,16.741,0,0,1,3.57,1.02v-1.8a6.3,6.3,0,0,0-1.77-4.8,7.359,7.359,0,0,0-5.25-1.68,13.905,13.905,0,0,0-4.92.9,22.848,22.848,0,0,0-4.92,2.64l-2.46-5.1a23.212,23.212,0,0,1,13.08-4.02q6.78,0,10.53,3.33t3.75,9.63v9.78a2.825,2.825,0,0,0,.45,1.8,1.972,1.972,0,0,0,1.47.6V0a17.9,17.9,0,0,1-3.54.42A5.36,5.36,0,0,1,35.07-.6a4.385,4.385,0,0,1-1.53-2.7l-.18-1.74a13.914,13.914,0,0,1-5.1,4.2A14.645,14.645,0,0,1,21.84.6Zm2.28-5.88A10.474,10.474,0,0,0,27.99-6a7.024,7.024,0,0,0,2.85-1.92,2.888,2.888,0,0,0,1.32-2.28v-3.6a19.684,19.684,0,0,0-3.12-.87A16.805,16.805,0,0,0,25.8-15a8.589,8.589,0,0,0-5.1,1.41,4.234,4.234,0,0,0-1.98,3.57,4.3,4.3,0,0,0,1.56,3.39A5.662,5.662,0,0,0,24.12-5.28Zm27.6-10.44a17.107,17.107,0,0,1,1.14-6.24,15.2,15.2,0,0,1,3.3-5.16,16.062,16.062,0,0,1,5.22-3.54,17.258,17.258,0,0,1,6.9-1.32,16.536,16.536,0,0,1,8.79,2.22,14.179,14.179,0,0,1,5.43,5.82l-7.86,2.4a7.061,7.061,0,0,0-2.7-2.67,7.551,7.551,0,0,0-3.72-.93,7.659,7.659,0,0,0-3.24.69,7.964,7.964,0,0,0-2.61,1.92,8.893,8.893,0,0,0-1.74,2.97A11.208,11.208,0,0,0,60-15.72a10.748,10.748,0,0,0,.66,3.84,9.679,9.679,0,0,0,1.77,3,7.777,7.777,0,0,0,2.61,1.95,7.52,7.52,0,0,0,3.18.69,7.71,7.71,0,0,0,3.99-1.08,6.074,6.074,0,0,0,2.55-2.64l7.86,2.4a13.214,13.214,0,0,1-5.34,5.88A16.782,16.782,0,0,1,68.34.6a17.258,17.258,0,0,1-6.9-1.32,15.83,15.83,0,0,1-5.22-3.57,15.84,15.84,0,0,1-3.33-5.22A16.792,16.792,0,0,1,51.72-15.72ZM93.78,6.12a15.512,15.512,0,0,0,1.98.45,10.79,10.79,0,0,0,1.62.15,3.439,3.439,0,0,0,1.44-.3,3.084,3.084,0,0,0,1.2-1.05A10.25,10.25,0,0,0,101.1,3.3q.54-1.32,1.14-3.3L89.82-31.44H98.1l8.52,24.48,7.56-24.48h7.56L108.54,6.24a11.257,11.257,0,0,1-3.9,5.4,10.967,10.967,0,0,1-6.84,2.1,13,13,0,0,1-1.95-.15,12.471,12.471,0,0,1-2.07-.51ZM-97.53,60V17.4h18.06a12.091,12.091,0,0,1,5.43,1.23,14.047,14.047,0,0,1,4.29,3.24,15.289,15.289,0,0,1,2.82,4.56,13.716,13.716,0,0,1,1.02,5.13,14.784,14.784,0,0,1-.96,5.25,14.576,14.576,0,0,1-2.7,4.53,13.265,13.265,0,0,1-4.2,3.18,12.15,12.15,0,0,1-5.4,1.2H-89.25V60Zm8.28-21.54h9.6a4.742,4.742,0,0,0,3.81-1.86,7.7,7.7,0,0,0,1.53-5.04,8.3,8.3,0,0,0-.48-2.91,7.07,7.07,0,0,0-1.26-2.19,5.014,5.014,0,0,0-1.83-1.35,5.362,5.362,0,0,0-2.13-.45h-9.24Zm48.3,22.14a17.258,17.258,0,0,1-6.9-1.32,15.5,15.5,0,0,1-5.19-3.57,15.758,15.758,0,0,1-3.27-5.19,16.944,16.944,0,0,1-1.14-6.18,17.107,17.107,0,0,1,1.14-6.24,15.758,15.758,0,0,1,3.27-5.19,15.5,15.5,0,0,1,5.19-3.57,17.258,17.258,0,0,1,6.9-1.32,17.042,17.042,0,0,1,6.87,1.32,15.572,15.572,0,0,1,5.16,3.57,15.759,15.759,0,0,1,3.27,5.19,17.107,17.107,0,0,1,1.14,6.24,16.944,16.944,0,0,1-1.14,6.18,16.012,16.012,0,0,1-3.24,5.19,15.173,15.173,0,0,1-5.16,3.57A17.258,17.258,0,0,1-40.95,60.6Zm-8.22-16.26a10.954,10.954,0,0,0,.63,3.81,9.309,9.309,0,0,0,1.74,2.97,7.777,7.777,0,0,0,2.61,1.95,7.659,7.659,0,0,0,3.24.69,7.659,7.659,0,0,0,3.24-.69,7.777,7.777,0,0,0,2.61-1.95,9.243,9.243,0,0,0,1.74-3,11.208,11.208,0,0,0,.63-3.84,11.024,11.024,0,0,0-.63-3.78,9.243,9.243,0,0,0-1.74-3,7.777,7.777,0,0,0-2.61-1.95,7.659,7.659,0,0,0-3.24-.69,7.39,7.39,0,0,0-3.24.72,8.142,8.142,0,0,0-2.61,1.98,9.243,9.243,0,0,0-1.74,3A11.024,11.024,0,0,0-49.17,44.34Zm36-28.14h8.04V49.92a3.969,3.969,0,0,0,.84,2.7,3.018,3.018,0,0,0,2.4.96A6.023,6.023,0,0,0-.3,53.34a10.754,10.754,0,0,0,1.65-.6l1.08,6.12a15.549,15.549,0,0,1-3.78,1.2,20.622,20.622,0,0,1-3.9.42,8.051,8.051,0,0,1-5.85-2.01,7.621,7.621,0,0,1-2.07-5.73ZM11.91,60V28.56h8.04V60Zm0-35.82V16.2h8.04v7.98Zm19.32,20.1a17.107,17.107,0,0,1,1.14-6.24,15.2,15.2,0,0,1,3.3-5.16,16.062,16.062,0,0,1,5.22-3.54,17.258,17.258,0,0,1,6.9-1.32,16.536,16.536,0,0,1,8.79,2.22,14.179,14.179,0,0,1,5.43,5.82l-7.86,2.4a7.061,7.061,0,0,0-2.7-2.67,7.551,7.551,0,0,0-3.72-.93,7.659,7.659,0,0,0-3.24.69,7.964,7.964,0,0,0-2.61,1.92,8.893,8.893,0,0,0-1.74,2.97,11.208,11.208,0,0,0-.63,3.84,10.748,10.748,0,0,0,.66,3.84,9.679,9.679,0,0,0,1.77,3,7.777,7.777,0,0,0,2.61,1.95,7.52,7.52,0,0,0,3.18.69,7.71,7.71,0,0,0,3.99-1.08,6.074,6.074,0,0,0,2.55-2.64l7.86,2.4a13.214,13.214,0,0,1-5.34,5.88,16.782,16.782,0,0,1-8.94,2.28,17.258,17.258,0,0,1-6.9-1.32,15.63,15.63,0,0,1-8.55-8.79A16.792,16.792,0,0,1,31.23,44.28ZM73.29,66.12a15.512,15.512,0,0,0,1.98.45,10.79,10.79,0,0,0,1.62.15,3.439,3.439,0,0,0,1.44-.3,3.084,3.084,0,0,0,1.2-1.05,10.25,10.25,0,0,0,1.08-2.07q.54-1.32,1.14-3.3L69.33,28.56h8.28l8.52,24.48,7.56-24.48h7.56L88.05,66.24a11.257,11.257,0,0,1-3.9,5.4,10.967,10.967,0,0,1-6.84,2.1,13,13,0,0,1-1.95-.15,12.471,12.471,0,0,1-2.07-.51Z" transform="translate(118.02 43.8)" fill="#fff"/>
</svg>
