<svg xmlns="http://www.w3.org/2000/svg" width="247.08" height="44.4" viewBox="0 0 247.08 44.4">
  <path id="パス_46" data-name="パス 46" d="M-95.01-31.44a10.234,10.234,0,0,0-1.53-1.14,18.593,18.593,0,0,0-2.7-1.41,23.255,23.255,0,0,0-3.45-1.17,15.067,15.067,0,0,0-3.78-.48,8.477,8.477,0,0,0-5.1,1.26,4.169,4.169,0,0,0-1.68,3.54,3.638,3.638,0,0,0,.63,2.19,5.446,5.446,0,0,0,1.83,1.53,15.4,15.4,0,0,0,3.03,1.2q1.83.54,4.23,1.14,3.12.84,5.67,1.8a15.363,15.363,0,0,1,4.32,2.4,9.91,9.91,0,0,1,2.73,3.45,11.437,11.437,0,0,1,.96,4.95,12.327,12.327,0,0,1-1.29,5.85A10.838,10.838,0,0,1-94.62-2.4,15.126,15.126,0,0,1-99.66-.21a25.289,25.289,0,0,1-5.97.69,32.067,32.067,0,0,1-9.48-1.44,29.269,29.269,0,0,1-8.4-4.08l3.66-7.14a11.562,11.562,0,0,0,1.95,1.41,29.805,29.805,0,0,0,3.33,1.74,25.907,25.907,0,0,0,4.26,1.47,19.248,19.248,0,0,0,4.8.6q6.84,0,6.84-4.38a3.591,3.591,0,0,0-.78-2.34,6.616,6.616,0,0,0-2.22-1.68,21.25,21.25,0,0,0-3.48-1.32q-2.04-.6-4.56-1.32a38.767,38.767,0,0,1-5.31-1.83,13.96,13.96,0,0,1-3.75-2.34,8.769,8.769,0,0,1-2.25-3.12,10.808,10.808,0,0,1-.75-4.23,13.242,13.242,0,0,1,1.2-5.76,11.642,11.642,0,0,1,3.33-4.2,15.086,15.086,0,0,1,4.95-2.55,20.455,20.455,0,0,1,6.06-.87,23.517,23.517,0,0,1,8.28,1.41,30.835,30.835,0,0,1,6.6,3.33ZM-63.81.6A17.446,17.446,0,0,1-70.65-.69,15.684,15.684,0,0,1-75.87-4.2,15.581,15.581,0,0,1-79.2-9.36a16.56,16.56,0,0,1-1.17-6.18,17.511,17.511,0,0,1,1.14-6.33,15.449,15.449,0,0,1,3.3-5.22,15.755,15.755,0,0,1,5.25-3.57,17.475,17.475,0,0,1,6.93-1.32,17.042,17.042,0,0,1,6.87,1.32,15.8,15.8,0,0,1,5.16,3.54,15.044,15.044,0,0,1,3.24,5.16,17.184,17.184,0,0,1,1.11,6.12q0,.78-.03,1.5a6.1,6.1,0,0,1-.15,1.2h-24.3a9.329,9.329,0,0,0,.9,3.3,8.155,8.155,0,0,0,1.86,2.46,8.1,8.1,0,0,0,2.58,1.56,8.474,8.474,0,0,0,3,.54,9.268,9.268,0,0,0,4.53-1.17,6.193,6.193,0,0,0,2.91-3.09l6.9,1.92a14.027,14.027,0,0,1-5.55,5.91A17.2,17.2,0,0,1-63.81.6Zm8.16-18.96a8.358,8.358,0,0,0-2.61-5.67,7.977,7.977,0,0,0-5.61-2.13,8.008,8.008,0,0,0-3.03.57A7.906,7.906,0,0,0-69.39-24a8.241,8.241,0,0,0-1.77,2.46,8.669,8.669,0,0,0-.81,3.18Zm37.92-6.12a15.858,15.858,0,0,0-6.54,1.41,8.254,8.254,0,0,0-4.14,4.05V0h-8.04V-31.44h7.38v6.72a14.334,14.334,0,0,1,1.98-2.91,15.268,15.268,0,0,1,2.46-2.25,11.406,11.406,0,0,1,2.67-1.47,7.369,7.369,0,0,1,2.61-.51h.99a3.207,3.207,0,0,1,.63.06ZM1.23,0-10.35-31.44h8.28L5.91-6.54l8.04-24.9h7.56L9.93,0ZM31.71,0V-31.44h8.04V0Zm0-35.82V-43.8h8.04v7.98Zm19.32,20.1a17.107,17.107,0,0,1,1.14-6.24,15.2,15.2,0,0,1,3.3-5.16,16.062,16.062,0,0,1,5.22-3.54,17.258,17.258,0,0,1,6.9-1.32,16.536,16.536,0,0,1,8.79,2.22,14.179,14.179,0,0,1,5.43,5.82l-7.86,2.4a7.061,7.061,0,0,0-2.7-2.67,7.551,7.551,0,0,0-3.72-.93,7.659,7.659,0,0,0-3.24.69,7.964,7.964,0,0,0-2.61,1.92,8.893,8.893,0,0,0-1.74,2.97,11.208,11.208,0,0,0-.63,3.84,10.748,10.748,0,0,0,.66,3.84,9.679,9.679,0,0,0,1.77,3,7.777,7.777,0,0,0,2.61,1.95,7.52,7.52,0,0,0,3.18.69,7.71,7.71,0,0,0,3.99-1.08,6.074,6.074,0,0,0,2.55-2.64l7.86,2.4a13.214,13.214,0,0,1-5.34,5.88A16.782,16.782,0,0,1,67.65.6a17.258,17.258,0,0,1-6.9-1.32,15.83,15.83,0,0,1-5.22-3.57A15.84,15.84,0,0,1,52.2-9.51,16.792,16.792,0,0,1,51.03-15.72ZM107.13.6a17.446,17.446,0,0,1-6.84-1.29A15.684,15.684,0,0,1,95.07-4.2a15.581,15.581,0,0,1-3.33-5.16,16.56,16.56,0,0,1-1.17-6.18,17.511,17.511,0,0,1,1.14-6.33,15.449,15.449,0,0,1,3.3-5.22,15.755,15.755,0,0,1,5.25-3.57,17.475,17.475,0,0,1,6.93-1.32,17.042,17.042,0,0,1,6.87,1.32,15.8,15.8,0,0,1,5.16,3.54,15.044,15.044,0,0,1,3.24,5.16,17.184,17.184,0,0,1,1.11,6.12q0,.78-.03,1.5a6.1,6.1,0,0,1-.15,1.2H99.09a9.329,9.329,0,0,0,.9,3.3,8.155,8.155,0,0,0,1.86,2.46,8.1,8.1,0,0,0,2.58,1.56,8.474,8.474,0,0,0,3,.54,9.268,9.268,0,0,0,4.53-1.17,6.193,6.193,0,0,0,2.91-3.09l6.9,1.92a14.027,14.027,0,0,1-5.55,5.91A17.2,17.2,0,0,1,107.13.6Zm8.16-18.96a8.358,8.358,0,0,0-2.61-5.67,7.977,7.977,0,0,0-5.61-2.13,8.008,8.008,0,0,0-3.03.57A7.906,7.906,0,0,0,101.55-24a8.241,8.241,0,0,0-1.77,2.46,8.669,8.669,0,0,0-.81,3.18Z" transform="translate(123.51 43.8)" fill="#b8ebcf"/>
</svg>
