<svg xmlns="http://www.w3.org/2000/svg" width="494.16" height="88.8" viewBox="0 0 494.16 88.8">
  <path id="パス_40" data-name="パス 40" d="M-190.02-62.88a20.468,20.468,0,0,0-3.06-2.28,37.186,37.186,0,0,0-5.4-2.82,46.511,46.511,0,0,0-6.9-2.34,30.135,30.135,0,0,0-7.56-.96q-6.84,0-10.2,2.52a8.338,8.338,0,0,0-3.36,7.08,7.276,7.276,0,0,0,1.26,4.38,10.892,10.892,0,0,0,3.66,3.06,30.789,30.789,0,0,0,6.06,2.4q3.66,1.08,8.46,2.28,6.24,1.68,11.34,3.6a30.726,30.726,0,0,1,8.64,4.8,19.819,19.819,0,0,1,5.46,6.9,22.874,22.874,0,0,1,1.92,9.9,24.654,24.654,0,0,1-2.58,11.7,21.676,21.676,0,0,1-6.96,7.86A30.252,30.252,0,0,1-199.32-.42,50.579,50.579,0,0,1-211.26.96a64.134,64.134,0,0,1-18.96-2.88,58.538,58.538,0,0,1-16.8-8.16l7.32-14.28a23.125,23.125,0,0,0,3.9,2.82,59.61,59.61,0,0,0,6.66,3.48,51.814,51.814,0,0,0,8.52,2.94,38.5,38.5,0,0,0,9.6,1.2q13.68,0,13.68-8.76a7.183,7.183,0,0,0-1.56-4.68,13.232,13.232,0,0,0-4.44-3.36,42.5,42.5,0,0,0-6.96-2.64q-4.08-1.2-9.12-2.64a77.534,77.534,0,0,1-10.62-3.66,27.92,27.92,0,0,1-7.5-4.68,17.538,17.538,0,0,1-4.5-6.24,21.615,21.615,0,0,1-1.5-8.46,26.484,26.484,0,0,1,2.4-11.52,23.283,23.283,0,0,1,6.66-8.4,30.171,30.171,0,0,1,9.9-5.1,40.909,40.909,0,0,1,12.12-1.74,47.034,47.034,0,0,1,16.56,2.82,61.67,61.67,0,0,1,13.2,6.66Zm62.4,64.08A34.892,34.892,0,0,1-141.3-1.38,31.368,31.368,0,0,1-151.74-8.4a31.162,31.162,0,0,1-6.66-10.32,33.121,33.121,0,0,1-2.34-12.36,35.023,35.023,0,0,1,2.28-12.66,30.9,30.9,0,0,1,6.6-10.44,31.509,31.509,0,0,1,10.5-7.14,34.951,34.951,0,0,1,13.86-2.64,34.083,34.083,0,0,1,13.74,2.64,31.6,31.6,0,0,1,10.32,7.08,30.088,30.088,0,0,1,6.48,10.32,34.368,34.368,0,0,1,2.22,12.24q0,1.56-.06,3a12.2,12.2,0,0,1-.3,2.4h-48.6a18.659,18.659,0,0,0,1.8,6.6,16.311,16.311,0,0,0,3.72,4.92,16.2,16.2,0,0,0,5.16,3.12,16.949,16.949,0,0,0,6,1.08,18.536,18.536,0,0,0,9.06-2.34,12.387,12.387,0,0,0,5.82-6.18l13.8,3.84a28.054,28.054,0,0,1-11.1,11.82Q-117.06,1.2-127.62,1.2Zm16.32-37.92a16.715,16.715,0,0,0-5.22-11.34,15.954,15.954,0,0,0-11.22-4.26,16.015,16.015,0,0,0-6.06,1.14A15.812,15.812,0,0,0-138.78-48a16.481,16.481,0,0,0-3.54,4.92,17.338,17.338,0,0,0-1.62,6.36Zm75.84-12.24a31.716,31.716,0,0,0-13.08,2.82,16.508,16.508,0,0,0-8.28,8.1V0H-72.9V-62.88h14.76v13.44a28.669,28.669,0,0,1,3.96-5.82,30.536,30.536,0,0,1,4.92-4.5,22.811,22.811,0,0,1,5.34-2.94,14.737,14.737,0,0,1,5.22-1.02h1.98a6.414,6.414,0,0,1,1.26.12ZM2.46,0-20.7-62.88H-4.14l15.96,49.8L27.9-62.88H43.02L19.86,0ZM63.42,0V-62.88H79.5V0Zm0-71.64V-87.6H79.5v15.96Zm38.64,40.2a34.215,34.215,0,0,1,2.28-12.48,30.391,30.391,0,0,1,6.6-10.32,32.125,32.125,0,0,1,10.44-7.08,34.515,34.515,0,0,1,13.8-2.64q10.32,0,17.58,4.44a28.359,28.359,0,0,1,10.86,11.64l-15.72,4.8a14.122,14.122,0,0,0-5.4-5.34,15.1,15.1,0,0,0-7.44-1.86,15.318,15.318,0,0,0-6.48,1.38,15.928,15.928,0,0,0-5.22,3.84,17.786,17.786,0,0,0-3.48,5.94,22.416,22.416,0,0,0-1.26,7.68,21.5,21.5,0,0,0,1.32,7.68,19.358,19.358,0,0,0,3.54,6,15.555,15.555,0,0,0,5.22,3.9,15.039,15.039,0,0,0,6.36,1.38,15.42,15.42,0,0,0,7.98-2.16,12.147,12.147,0,0,0,5.1-5.28l15.72,4.8A26.427,26.427,0,0,1,153.18-3.36Q145.74,1.2,135.3,1.2a34.515,34.515,0,0,1-13.8-2.64,31.66,31.66,0,0,1-10.44-7.14,31.681,31.681,0,0,1-6.66-10.44A33.584,33.584,0,0,1,102.06-31.44ZM214.26,1.2a34.892,34.892,0,0,1-13.68-2.58A31.368,31.368,0,0,1,190.14-8.4a31.162,31.162,0,0,1-6.66-10.32,33.121,33.121,0,0,1-2.34-12.36,35.023,35.023,0,0,1,2.28-12.66,30.9,30.9,0,0,1,6.6-10.44,31.509,31.509,0,0,1,10.5-7.14,34.951,34.951,0,0,1,13.86-2.64,34.083,34.083,0,0,1,13.74,2.64,31.6,31.6,0,0,1,10.32,7.08,30.088,30.088,0,0,1,6.48,10.32,34.368,34.368,0,0,1,2.22,12.24q0,1.56-.06,3a12.2,12.2,0,0,1-.3,2.4h-48.6a18.659,18.659,0,0,0,1.8,6.6,16.311,16.311,0,0,0,3.72,4.92,16.2,16.2,0,0,0,5.16,3.12,16.949,16.949,0,0,0,6,1.08,18.536,18.536,0,0,0,9.06-2.34,12.387,12.387,0,0,0,5.82-6.18l13.8,3.84a28.054,28.054,0,0,1-11.1,11.82Q224.82,1.2,214.26,1.2Zm16.32-37.92a16.715,16.715,0,0,0-5.22-11.34,15.954,15.954,0,0,0-11.22-4.26,16.015,16.015,0,0,0-6.06,1.14A15.812,15.812,0,0,0,203.1-48a16.481,16.481,0,0,0-3.54,4.92,17.338,17.338,0,0,0-1.62,6.36Z" transform="translate(247.02 87.6)" fill="#b8ebcf"/>
</svg>
