<svg xmlns="http://www.w3.org/2000/svg" width="243.676" height="50.369" viewBox="0 0 243.676 50.369">
  <g id="グループ_22" data-name="グループ 22" transform="translate(-160 -392.89)">
    <path id="パス_1" data-name="パス 1" d="M199.722,424.764A19.665,19.665,0,1,1,180.058,405.1a19.665,19.665,0,0,1,19.665,19.665M160,415.776V433.7A10.925,10.925,0,0,0,170.893,444.6H188.82A10.925,10.925,0,0,0,199.713,433.7V415.776a10.926,10.926,0,0,0-10.893-10.893H170.893A10.925,10.925,0,0,0,160,415.776" transform="translate(0 -1.338)" fill="#f38200"/>
    <path id="パス_2" data-name="パス 2" d="M217.924,424.764A19.665,19.665,0,1,1,198.259,405.1a19.665,19.665,0,0,1,19.665,19.665m-39.39-8.987V433.7A10.925,10.925,0,0,0,189.427,444.6h17.927A10.925,10.925,0,0,0,218.247,433.7V415.776a10.925,10.925,0,0,0-10.893-10.893H189.427a10.926,10.926,0,0,0-10.893,10.893" transform="translate(-2.068 -1.338)" fill="#2b8131"/>
    <path id="パス_3" data-name="パス 3" d="M199.722,412.79a19.665,19.665,0,1,1-19.665-19.665,19.665,19.665,0,0,1,19.665,19.665M160,403.783V421.71A10.925,10.925,0,0,0,170.893,432.6H188.82a10.925,10.925,0,0,0,10.893-10.893V403.783A10.926,10.926,0,0,0,188.82,392.89H170.893A10.925,10.925,0,0,0,160,403.783" fill="#2b8131"/>
    <path id="パス_4" data-name="パス 4" d="M217.924,412.79a19.665,19.665,0,1,1-19.665-19.665,19.665,19.665,0,0,1,19.665,19.665m-39.39-9.007V421.71A10.925,10.925,0,0,0,189.427,432.6h17.927a10.925,10.925,0,0,0,10.893-10.893V403.783a10.925,10.925,0,0,0-10.893-10.893H189.427a10.926,10.926,0,0,0-10.893,10.893" transform="translate(-2.068)" fill="#e77e00"/>
    <path id="パス_5" data-name="パス 5" d="M246.6,415.891h-8.117v.654h3.7v9.439h.725v-9.439h3.7v-.654Zm2.36,9.439v-4.193h5.132v-.625H248.96v-3.966h5.871v-.654h-6.6v10.093h6.724v-.654Zm7.7.654,1.407-3.326h4.819l1.407,3.326h.782l-4.293-10.093h-.6L255.9,425.984Zm6.027-3.923h-4.449l2.246-5.288,2.2,5.288Zm13.831,3.923V415.891H275.8l-4.208,7.221-4.208-7.221h-.725v10.093h.725v-8.728l3.98,6.809h.455l3.98-6.809v8.728Zm7.107,0v-3.81h3.525a2.517,2.517,0,0,0,1.159-.263,2.876,2.876,0,0,0,.9-.7,3.224,3.224,0,0,0,.583-1.009,3.425,3.425,0,0,0,.206-1.18,3.083,3.083,0,0,0-.22-1.13,3.428,3.428,0,0,0-.611-1.009,3.015,3.015,0,0,0-.931-.718,2.608,2.608,0,0,0-1.18-.27H282.9v10.093Zm0-9.439h3.4a1.93,1.93,0,0,1,.86.2,2.327,2.327,0,0,1,.711.54,2.619,2.619,0,0,1,.483.789,2.546,2.546,0,0,1,.178.945,2.924,2.924,0,0,1-.149.931,2.569,2.569,0,0,1-.426.8,2.051,2.051,0,0,1-.675.554,1.917,1.917,0,0,1-.9.206h-3.483v-4.961Zm14.052,9.091a4.838,4.838,0,0,0,1.493-1.123,5.33,5.33,0,0,0,1.016-5.43,5.42,5.42,0,0,0-.96-1.642,4.861,4.861,0,0,0-1.485-1.173,4.121,4.121,0,0,0-1.919-.448,4.263,4.263,0,0,0-1.876.419,4.772,4.772,0,0,0-1.5,1.13,5.409,5.409,0,0,0-1,1.635,5.251,5.251,0,0,0-.362,1.933,5.414,5.414,0,0,0,.341,1.891,5.144,5.144,0,0,0,.967,1.635,4.935,4.935,0,0,0,1.493,1.151,4.388,4.388,0,0,0,3.788.021Zm-5.579-6.319a4.761,4.761,0,0,1,.8-1.429,3.982,3.982,0,0,1,1.258-1.016,3.689,3.689,0,0,1,3.248-.014,4.1,4.1,0,0,1,1.265.988,4.628,4.628,0,0,1,.832,1.422,4.792,4.792,0,0,1,.014,3.291,4.647,4.647,0,0,1-.81,1.429A4.091,4.091,0,0,1,297.454,425a3.48,3.48,0,0,1-1.642.384,3.521,3.521,0,0,1-1.613-.37,4.083,4.083,0,0,1-1.265-.988,4.513,4.513,0,0,1-.824-1.422,4.848,4.848,0,0,1-.291-1.67,4.8,4.8,0,0,1,.284-1.62Zm16.077.9-2.09,4.918-3.881-9.24h-.782l4.307,10.093h.668l2.232-5.189,2.218,5.189h.668l4.321-10.093h-.8l-3.866,9.24-2.118-4.918,1.777-4.25h-.711l-1.507,3.667-1.507-3.667H306.4l1.777,4.25Zm9.936,5.117v-4.193h5.132v-.625h-5.132v-3.966h5.871v-.654h-6.6v10.093h6.724v-.654Zm8.742.654v-3.81h3.269l2.445,3.81h.839l-2.516-3.923a2.64,2.64,0,0,0,.967-.355,2.719,2.719,0,0,0,.753-.682,3.162,3.162,0,0,0,.483-.931,3.412,3.412,0,0,0,.171-1.073,3.083,3.083,0,0,0-.22-1.13,3.524,3.524,0,0,0-.6-1.009,2.935,2.935,0,0,0-.924-.718,2.61,2.61,0,0,0-1.18-.27h-4.208v10.093Zm0-9.439h3.44a1.907,1.907,0,0,1,.874.206,2.432,2.432,0,0,1,.711.547,2.636,2.636,0,0,1,.483.789,2.511,2.511,0,0,1,.178.931,2.882,2.882,0,0,1-.149.917,2.5,2.5,0,0,1-.434.8,2.239,2.239,0,0,1-.682.562,1.839,1.839,0,0,1-.881.213h-3.54v-4.961Zm11.99,6.219a5.519,5.519,0,0,0,.974,1.663,5.023,5.023,0,0,0,1.485,1.187,3.992,3.992,0,0,0,1.9.455,4.933,4.933,0,0,0,1.187-.149,4.659,4.659,0,0,0,1.144-.448,4.2,4.2,0,0,0,.974-.739,3.417,3.417,0,0,0,.689-1.009l-.611-.3a3.293,3.293,0,0,1-.64.888,3.664,3.664,0,0,1-.832.618,3.752,3.752,0,0,1-.924.355,3.963,3.963,0,0,1-.931.114,3.5,3.5,0,0,1-1.592-.37,4.15,4.15,0,0,1-1.279-.988,4.762,4.762,0,0,1-.853-1.429,4.709,4.709,0,0,1-.313-1.706,4.994,4.994,0,0,1,.263-1.585,4.437,4.437,0,0,1,.775-1.414,4.05,4.05,0,0,1,1.251-1.016,3.6,3.6,0,0,1,1.706-.391,4.215,4.215,0,0,1,.9.1,3.469,3.469,0,0,1,.874.32,3.353,3.353,0,0,1,.782.576,3.16,3.16,0,0,1,.618.881l.6-.341a3.8,3.8,0,0,0-1.407-1.585,4.135,4.135,0,0,0-2.3-.618,4.441,4.441,0,0,0-2.026.448,4.816,4.816,0,0,0-1.5,1.159,5.045,5.045,0,0,0-.931,1.613,5.32,5.32,0,0,0,.028,3.71Zm10.91,3.22v-3.81h3.269l2.445,3.81h.839l-2.516-3.923a2.634,2.634,0,0,0,.967-.355,2.707,2.707,0,0,0,.753-.682,3.142,3.142,0,0,0,.483-.931,3.412,3.412,0,0,0,.171-1.073,3.083,3.083,0,0,0-.22-1.13,3.5,3.5,0,0,0-.6-1.009,2.935,2.935,0,0,0-.924-.718,2.608,2.608,0,0,0-1.18-.27h-4.208v10.093Zm0-9.439h3.44a1.907,1.907,0,0,1,.874.206,2.421,2.421,0,0,1,.711.547,2.617,2.617,0,0,1,.483.789,2.51,2.51,0,0,1,.178.931,2.882,2.882,0,0,1-.149.917,2.5,2.5,0,0,1-.434.8,2.218,2.218,0,0,1-.682.562,1.836,1.836,0,0,1-.881.213h-3.54v-4.961Zm9.325,8.785v-4.193h5.132v-.625h-5.132v-3.966h5.871v-.654h-6.6v10.093h6.724v-.654Zm7.7.654,1.407-3.326h4.819l1.407,3.326h.782l-4.293-10.093h-.6l-4.293,10.093Zm6.027-3.923h-4.449l2.246-5.288,2.2,5.288Zm11.045-6.169h-8.117v.654h3.7v9.439h.725v-9.439h3.7v-.654Zm7.57,9.744a4.836,4.836,0,0,0,1.493-1.123,5.33,5.33,0,0,0,1.016-5.43,5.42,5.42,0,0,0-.96-1.642,4.872,4.872,0,0,0-1.486-1.173,4.121,4.121,0,0,0-1.919-.448,4.257,4.257,0,0,0-1.876.419,4.762,4.762,0,0,0-1.5,1.13,5.408,5.408,0,0,0-1,1.635,5.25,5.25,0,0,0-.362,1.933,5.414,5.414,0,0,0,.341,1.891,5.128,5.128,0,0,0,.967,1.635,4.935,4.935,0,0,0,1.493,1.151,4.388,4.388,0,0,0,3.788.021Zm-5.579-6.319a4.743,4.743,0,0,1,.8-1.429,3.982,3.982,0,0,1,1.258-1.016,3.689,3.689,0,0,1,3.248-.014,4.1,4.1,0,0,1,1.265.988,4.627,4.627,0,0,1,.832,1.422,4.791,4.791,0,0,1,.014,3.291,4.683,4.683,0,0,1-.81,1.429A4.092,4.092,0,0,1,391.2,425a3.7,3.7,0,0,1-3.255.014,4.073,4.073,0,0,1-1.265-.988,4.5,4.5,0,0,1-.824-1.422,4.849,4.849,0,0,1-.291-1.67,4.776,4.776,0,0,1,.284-1.62Zm11.173,6.667v-3.81h3.27l2.445,3.81h.839l-2.516-3.923a2.64,2.64,0,0,0,.967-.355,2.719,2.719,0,0,0,.753-.682,3.162,3.162,0,0,0,.483-.931,3.413,3.413,0,0,0,.171-1.073,3.083,3.083,0,0,0-.22-1.13,3.525,3.525,0,0,0-.6-1.009,2.935,2.935,0,0,0-.924-.718,2.61,2.61,0,0,0-1.18-.27H396.3v10.093Zm0-9.439h3.44a1.908,1.908,0,0,1,.874.206,2.432,2.432,0,0,1,.711.547,2.635,2.635,0,0,1,.483.789,2.51,2.51,0,0,1,.178.931,2.882,2.882,0,0,1-.149.917,2.5,2.5,0,0,1-.434.8,2.239,2.239,0,0,1-.682.562,1.839,1.839,0,0,1-.881.213h-3.54v-4.961Zm14.868.455a4.128,4.128,0,0,0-1.393-.888,4.914,4.914,0,0,0-1.749-.291,5.351,5.351,0,0,0-1.45.185,3.279,3.279,0,0,0-1.123.547,2.563,2.563,0,0,0-.732.888,2.672,2.672,0,0,0-.263,1.208,2.244,2.244,0,0,0,.213,1.038,1.911,1.911,0,0,0,.64.7,3.876,3.876,0,0,0,1.045.483q.618.192,1.429.362t1.386.355a4.083,4.083,0,0,1,.988.441,1.7,1.7,0,0,1,.59.6,1.732,1.732,0,0,1,.192.846,1.625,1.625,0,0,1-.746,1.464,3.782,3.782,0,0,1-2.068.483,5.271,5.271,0,0,1-2.075-.391,4.621,4.621,0,0,1-1.564-1.059l-.384.583a5.678,5.678,0,0,0,3.994,1.507,5.89,5.89,0,0,0,1.471-.171,3.463,3.463,0,0,0,1.137-.5,2.325,2.325,0,0,0,.739-.832,2.45,2.45,0,0,0,.263-1.166,2.314,2.314,0,0,0-.249-1.123,2.19,2.19,0,0,0-.711-.768,4.288,4.288,0,0,0-1.116-.519q-.653-.205-1.478-.377-.768-.156-1.329-.32a3.832,3.832,0,0,1-.924-.384,1.4,1.4,0,0,1-.533-.547,1.736,1.736,0,0,1-.171-.81,1.87,1.87,0,0,1,.675-1.514,3.352,3.352,0,0,1,2.154-.561,3.53,3.53,0,0,1,2.772,1.095l.37-.569Z" transform="translate(-8.755 -2.558)" fill="#1a1311"/>
  </g>
</svg>
