<svg xmlns="http://www.w3.org/2000/svg" width="59.16" height="36.42" viewBox="0 0 59.16 36.42">
  <path id="パス_41" data-name="パス 41" d="M33.6,38.42a22.379,22.379,0,0,1-1.14,7.29,17.84,17.84,0,0,1-3.18,5.76,14.491,14.491,0,0,1-4.83,3.78,13.661,13.661,0,0,1-6.03,1.35,13.8,13.8,0,0,1-6.09-1.35,14.188,14.188,0,0,1-4.8-3.78,18.166,18.166,0,0,1-3.15-5.76,22.379,22.379,0,0,1-1.14-7.29,22.379,22.379,0,0,1,1.14-7.29,18.166,18.166,0,0,1,3.15-5.76,14.527,14.527,0,0,1,4.8-3.81,13.546,13.546,0,0,1,6.09-1.38,13.414,13.414,0,0,1,6.03,1.38,14.842,14.842,0,0,1,4.83,3.81,17.84,17.84,0,0,1,3.18,5.76A22.379,22.379,0,0,1,33.6,38.42Zm-5.34,0a19.169,19.169,0,0,0-.72-5.4,13.211,13.211,0,0,0-2.04-4.23,9.4,9.4,0,0,0-3.12-2.73,8.282,8.282,0,0,0-3.96-.96,8.584,8.584,0,0,0-4.05.96,9.022,9.022,0,0,0-3.12,2.73,13.6,13.6,0,0,0-2.01,4.23,19.169,19.169,0,0,0-.72,5.4,19.085,19.085,0,0,0,.72,5.43,13.258,13.258,0,0,0,2.01,4.17,9.142,9.142,0,0,0,3.12,2.7,8.584,8.584,0,0,0,4.05.96,8.282,8.282,0,0,0,3.96-.96,9.527,9.527,0,0,0,3.12-2.7,12.881,12.881,0,0,0,2.04-4.17A19.085,19.085,0,0,0,28.26,38.42ZM62.4,51.2V56H40.86V51.2h8.52V27.8a7.6,7.6,0,0,1-1.68,1.53,18.224,18.224,0,0,1-2.55,1.5A21.561,21.561,0,0,1,42.24,32a8.819,8.819,0,0,1-2.64.48V27.44a7.093,7.093,0,0,0,2.94-.75,22.276,22.276,0,0,0,3.09-1.74,24.208,24.208,0,0,0,2.52-1.92,6.214,6.214,0,0,0,1.23-1.29h5.4V51.2Z" transform="translate(-3.24 -20.18)" fill="#00b14d"/>
</svg>
