<svg xmlns="http://www.w3.org/2000/svg" width="62.88" height="36.42" viewBox="0 0 62.88 36.42">
  <path id="パス_42" data-name="パス 42" d="M33.6,38.42a22.379,22.379,0,0,1-1.14,7.29,17.84,17.84,0,0,1-3.18,5.76,14.491,14.491,0,0,1-4.83,3.78,13.661,13.661,0,0,1-6.03,1.35,13.8,13.8,0,0,1-6.09-1.35,14.188,14.188,0,0,1-4.8-3.78,18.166,18.166,0,0,1-3.15-5.76,22.379,22.379,0,0,1-1.14-7.29,22.379,22.379,0,0,1,1.14-7.29,18.166,18.166,0,0,1,3.15-5.76,14.527,14.527,0,0,1,4.8-3.81,13.546,13.546,0,0,1,6.09-1.38,13.414,13.414,0,0,1,6.03,1.38,14.842,14.842,0,0,1,4.83,3.81,17.84,17.84,0,0,1,3.18,5.76A22.379,22.379,0,0,1,33.6,38.42Zm-5.34,0a19.169,19.169,0,0,0-.72-5.4,13.211,13.211,0,0,0-2.04-4.23,9.4,9.4,0,0,0-3.12-2.73,8.282,8.282,0,0,0-3.96-.96,8.584,8.584,0,0,0-4.05.96,9.022,9.022,0,0,0-3.12,2.73,13.6,13.6,0,0,0-2.01,4.23,19.169,19.169,0,0,0-.72,5.4,19.085,19.085,0,0,0,.72,5.43,13.258,13.258,0,0,0,2.01,4.17,9.142,9.142,0,0,0,3.12,2.7,8.584,8.584,0,0,0,4.05.96,8.282,8.282,0,0,0,3.96-.96,9.527,9.527,0,0,0,3.12-2.7,12.881,12.881,0,0,0,2.04-4.17A19.085,19.085,0,0,0,28.26,38.42ZM39.42,56a24.644,24.644,0,0,1,.39-4.5,12.993,12.993,0,0,1,1.47-4.02,15.033,15.033,0,0,1,2.97-3.66,27.12,27.12,0,0,1,4.95-3.48q1.8-.96,3.66-1.89a28.546,28.546,0,0,0,3.39-1.98,12.137,12.137,0,0,0,2.52-2.25,4.3,4.3,0,0,0,.99-2.82,4.755,4.755,0,0,0-.48-2.04,5.425,5.425,0,0,0-1.38-1.8,6.949,6.949,0,0,0-2.25-1.26,9.2,9.2,0,0,0-3.09-.48,9.928,9.928,0,0,0-3.27.51,11.711,11.711,0,0,0-2.61,1.26,12.514,12.514,0,0,0-1.98,1.59q-.84.84-1.38,1.5L39.9,26.84a15.032,15.032,0,0,1,1.62-1.47,19.438,19.438,0,0,1,2.88-1.89,20.772,20.772,0,0,1,4.02-1.65,17.576,17.576,0,0,1,5.1-.69,15.5,15.5,0,0,1,4.98.75,11.108,11.108,0,0,1,3.75,2.07,9.334,9.334,0,0,1,2.37,3.09,8.639,8.639,0,0,1,.84,3.75,7.921,7.921,0,0,1-1.02,4.08,12.748,12.748,0,0,1-2.49,3.06,17.105,17.105,0,0,1-3.15,2.25q-1.68.93-3,1.59t-2.97,1.59a25.366,25.366,0,0,0-3.15,2.1,14.653,14.653,0,0,0-2.61,2.61,7.106,7.106,0,0,0-1.41,3.12H66.12V56Z" transform="translate(-3.24 -20.18)" fill="#00b14d"/>
</svg>
