<svg xmlns="http://www.w3.org/2000/svg" width="63.42" height="44.64" viewBox="0 0 63.42 44.64">
  <path id="パス_43" data-name="パス 43" d="M33.6,38.42a22.379,22.379,0,0,1-1.14,7.29,17.84,17.84,0,0,1-3.18,5.76,14.491,14.491,0,0,1-4.83,3.78,13.661,13.661,0,0,1-6.03,1.35,13.8,13.8,0,0,1-6.09-1.35,14.188,14.188,0,0,1-4.8-3.78,18.166,18.166,0,0,1-3.15-5.76,22.379,22.379,0,0,1-1.14-7.29,22.379,22.379,0,0,1,1.14-7.29,18.166,18.166,0,0,1,3.15-5.76,14.527,14.527,0,0,1,4.8-3.81,13.546,13.546,0,0,1,6.09-1.38,13.414,13.414,0,0,1,6.03,1.38,14.842,14.842,0,0,1,4.83,3.81,17.84,17.84,0,0,1,3.18,5.76A22.379,22.379,0,0,1,33.6,38.42Zm-5.34,0a19.169,19.169,0,0,0-.72-5.4,13.211,13.211,0,0,0-2.04-4.23,9.4,9.4,0,0,0-3.12-2.73,8.282,8.282,0,0,0-3.96-.96,8.584,8.584,0,0,0-4.05.96,9.022,9.022,0,0,0-3.12,2.73,13.6,13.6,0,0,0-2.01,4.23,19.169,19.169,0,0,0-.72,5.4,19.085,19.085,0,0,0,.72,5.43,13.258,13.258,0,0,0,2.01,4.17,9.142,9.142,0,0,0,3.12,2.7,8.584,8.584,0,0,0,4.05.96,8.282,8.282,0,0,0,3.96-.96,9.527,9.527,0,0,0,3.12-2.7,12.881,12.881,0,0,0,2.04-4.17A19.085,19.085,0,0,0,28.26,38.42Zm30.06,3.42a9.464,9.464,0,0,1,6.09,3.54,11.244,11.244,0,0,1,2.25,7.14,12.2,12.2,0,0,1-1.02,5.04,10.978,10.978,0,0,1-2.91,3.9,13.234,13.234,0,0,1-4.53,2.49,18.716,18.716,0,0,1-5.88.87,17.82,17.82,0,0,1-8.01-1.71,12.848,12.848,0,0,1-5.37-4.83l3.54-3.54a10.325,10.325,0,0,0,3.72,3.87,11.748,11.748,0,0,0,6.12,1.41,10.287,10.287,0,0,0,6.51-1.86,6.728,6.728,0,0,0,2.37-5.64,7.64,7.64,0,0,0-2.55-6.03q-2.55-2.25-7.41-2.25H49.68V39.8h1.68q4.32,0,6.63-2.07a6.742,6.742,0,0,0,2.31-5.25,5.4,5.4,0,0,0-2.22-4.74,9.473,9.473,0,0,0-5.58-1.56,11.55,11.55,0,0,0-5.79,1.41,9.886,9.886,0,0,0-3.87,3.93L39.6,28.16a9.813,9.813,0,0,1,2.13-2.73,14.067,14.067,0,0,1,3.12-2.13,16.818,16.818,0,0,1,3.84-1.38,19.2,19.2,0,0,1,4.35-.48,16.519,16.519,0,0,1,5.19.78,12.791,12.791,0,0,1,4.08,2.16,9.4,9.4,0,0,1,2.64,3.36,10.174,10.174,0,0,1,.93,4.38,11.323,11.323,0,0,1-.51,3.42,9.729,9.729,0,0,1-1.5,2.94,8.652,8.652,0,0,1-2.4,2.19A8.775,8.775,0,0,1,58.32,41.84Z" transform="translate(-3.24 -20.18)" fill="#00b14d"/>
</svg>
