<svg xmlns="http://www.w3.org/2000/svg" width="27.28" height="23.84" viewBox="0 0 27.28 23.84">
  <path id="パス_40" data-name="パス 40" d="M14.56,30.76C8.4,34.36,5.04,39.48,5.04,46.6c0,5.12,2.08,8,5.6,8,2.8,0,4.72-1.76,4.72-4.88a4.429,4.429,0,0,0-4.72-4.48,2.466,2.466,0,0,0-.8.08c.08-5.12,2.4-8.16,6.8-11.12Zm15.68,0c-6.08,3.6-9.44,8.72-9.44,15.84,0,5.12,2,8,5.52,8a4.682,4.682,0,1,0,0-9.36,2.215,2.215,0,0,0-.72.08c.08-5.12,2.4-8.16,6.72-11.12Z" transform="translate(-5.04 -30.76)" fill="#b8ebcf"/>
</svg>
