<svg xmlns="http://www.w3.org/2000/svg" width="27.28" height="23.92" viewBox="0 0 27.28 23.92">
  <path id="パス_41" data-name="パス 41" d="M7.68,54.44c6.16-3.6,9.52-8.72,9.52-15.84,0-5.12-2.16-8.08-5.68-8.08-2.72,0-4.64,1.84-4.64,4.88a4.426,4.426,0,0,0,4.64,4.56,2.466,2.466,0,0,0,.8-.08C12.24,45,10,47.96,5.6,51Zm15.68,0c6.16-3.6,9.52-8.72,9.52-15.84,0-5.12-2.08-8.08-5.6-8.08a4.5,4.5,0,0,0-4.72,4.88,4.447,4.447,0,0,0,4.72,4.56,2.722,2.722,0,0,0,.8-.08C28,45,25.76,47.96,21.28,51Z" transform="translate(-5.6 -30.52)" fill="#b8ebcf"/>
</svg>
